<?xml version="1.0" encoding="UTF-8"?>
<svg width="128pt" height="128pt" version="1.1" viewBox="0 0 128 128" xmlns="http://www.w3.org/2000/svg">
 <g fill="#676767">
  <path d="m59.609 16c11.391 0 21.707 4.6172 29.172 12.082 7.4648 7.4648 12.082 17.781 12.082 29.172 0 4.793-0.82031 9.4023-2.332 13.691-1.5664 4.4492-3.8711 8.543-6.7656 12.145l-0.5 0.62109-0.71094-0.35547-18.988-9.4336 8.8789 17.871 0.41797 0.83984-0.8125 0.46484c-3.0586 1.7461-6.3672 3.1172-9.8555 4.043-3.3828 0.89453-6.9297 1.375-10.582 1.375-11.391 0-21.707-4.6172-29.172-12.082s-12.082-17.781-12.082-29.172 4.6172-21.707 12.082-29.172 17.781-12.082 29.172-12.082zm27.766 13.492c-7.1055-7.1055-16.922-11.5-27.766-11.5s-20.66 4.3945-27.766 11.5c-7.1055 7.1055-11.5 16.922-11.5 27.766s4.3945 20.66 11.5 27.766c7.1055 7.1055 16.922 11.5 27.766 11.5 3.4883 0 6.8672-0.45313 10.078-1.3047 3.0078-0.79688 5.875-1.9414 8.5586-3.3906l-9.7695-19.664 1.332-1.332 20.91 10.391c2.5273-3.2734 4.5469-6.9531 5.9453-10.926 1.4336-4.0742 2.2148-8.4609 2.2148-13.035 0-10.844-4.3945-20.66-11.5-27.766z"/>
  <path d="m24.199 77.48 4.9336-9.0898 0.16406-0.22266c0.011719-0.011719 4.6641-4.8438 10.191-0.38672 1.5664 1.2617 2.5586 2.3906 3.4023 3.3516 1.6133 1.8359 2.5977 2.957 6.8594 2.957h0.91797l0.074219 0.91797c0 0.023438 0.74609 7.8516-8.8281 9.1445-6.1445 0.83203 0.375 6.4609 0.875 6.8828 0.60547 0.39844 4.5625 3.1406-2.1602 2.7578l0.10547-1.9297c-2.2891-2.1562-8.082-8.4609 0.91406-9.6797 5.8281-0.78906 6.9062-4.4141 7.082-6.125-4.3086-0.17578-5.4883-1.5195-7.3359-3.6211-0.78516-0.89453-1.7109-1.9492-3.1523-3.1094-3.7266-3.0039-6.875-0.38281-7.4414 0.14453l-4.8633 8.957-1.7422-0.94922z"/>
  <path d="m19.797 64.965 10.789-5.7969 0.03125-0.015625c0.007812-0.003906 3.3711-1.6328-0.80078-3.8281l-0.54297-0.28516 0.011718-0.61328 0.19531-9.4414 0.019531-0.17969c0.003906-0.011719 0.75781-4.0898 7.9766-4.9102 4.8555-0.55078-3.793-13.52-3.8164-13.555l1.6562-1.0977c0.03125 0.046874 10.5 15.703 2.375 16.629-5.2227 0.59375-6.1094 2.8398-6.2305 3.2617l-0.17969 8.7344c6.5 3.7383 0.71484 6.8125 0.24219 7.0508l-10.789 5.7969-0.94141-1.75z"/>
  <path d="m68.68 18.391s0.035156-0.042969 0.011718 0.015625l-1.8672-0.68359c0.085937-0.23438 0.19531-0.4375 0.19922-0.4375zm0.011718 0.015625c-0.050781 0.13672-0.16016 0.36719-0.30469 0.67188-1.1211 2.3438-4.9375 10.332 3.293 14.789 4.8828 2.6445 7.9492 5.707 9.8086 8.7305 2.6016 4.2305 2.8398 8.3906 2.3594 11.273l-0.11719 0.33203-3.4922 6.1055 17.859 9.4961-0.93359 1.7578-18.766-9.9766-0.90625-0.48047 0.51172-0.89062 3.9141-6.8398c0.38281-2.5117 0.12109-6.0781-2.1211-9.7305-1.6953-2.7578-4.5234-5.5664-9.0547-8.0195-9.8945-5.3594-5.4453-14.668-4.1406-17.395 0.10938-0.22656 0.19141-0.39844 0.22656-0.5"/>
  <path d="m94.746 64.297c-0.003906-0.015625-1.0039-5.875-4.7383-7.6719-0.89453-0.42969-1.6094-1.125-2.1797-1.9766h-0.003906c-1.2031-1.8047-1.7461-4.3555-1.9414-6.5508-0.19531-2.2305 0-4.2188 0.23047-4.6992 0.074219-0.15234 0.17188-0.28125 0.28906-0.38281 0.26562-0.48047 0.79688-1.4258 4.8125-3.5508l0.75-0.39453 0.50781 0.68359c0.019532 0.027344 7.2383 9.5273 4.2148 24.57l-1.9531-0.023438zm-3.875-9.4609c2.1641 1.043 3.5742 3.0781 4.4688 4.9648 0.79688-9.582-2.6719-16.09-3.9766-18.156-2.7695 1.5195-3.0664 2.0547-3.2227 2.3359-0.085937 0.15234-0.15625 0.27734-0.27344 0.40234-0.10547 0.45703-0.15234 1.8398 0 3.5469 0.16797 1.9297 0.625 4.1367 1.6133 5.6172h-0.003907c0.38281 0.57031 0.83984 1.0273 1.3945 1.293z"/>
  <path d="m86.602 103.48-1.7109 1.7109-0.61719-1.2422-15.797-31.797-1.3125-2.6445 2.6445 1.3125 31.797 15.797 1.2422 0.61719-2.1328 2.1328-0.42578-0.007813-13.699-0.30469 0.30469 13.699 0.007813 0.42578zm-15.031-29.562 13.289 26.75-0.28125-12.605-0.023437-1.0352 1.0352 0.023438 12.996 0.28906z"/>
  <path d="m88.707 87.398 20.938 20.938-3.6602 3.6602-21.066-21.066-0.28906-0.68359-0.046875-2.1445-0.015625-0.78125 0.76172-0.19922 0.125-0.03125 0.26953-0.03125 2.3047 0.050781 0.68359 0.28906zm18.125 20.941-19.254-19.254-0.99219-0.023438 0.015624 0.73828 19.383 19.383 0.84375-0.84375z"/>
 </g>
</svg>
