<?xml version="1.0" encoding="UTF-8"?>
<svg width="128pt" height="128pt" version="1.1" viewBox="0 0 128 128" xmlns="http://www.w3.org/2000/svg">
 <g fill="#676767">
  <path d="m74.98 11.438c-0.21094-0.71094-0.79688-1.25-1.5234-1.3945-0.72656-0.14844-1.4766 0.11719-1.9453 0.69141-6.1484 7.5273-14.586 12.621-20.586 15.57-8.3086 4.0859-18.043 10.215-19.574 21.422v0.003907c-0.074218 0.52734 0.0625 1.0625 0.38281 1.4883s0.79688 0.70312 1.3242 0.77734c0.53125 0.070312 1.0625-0.070313 1.4883-0.39453 0.42188-0.32422 0.69922-0.80078 0.76953-1.3281 1.2773-9.3398 9.9609-14.727 17.379-18.375 7.0742-3.3945 13.535-7.9492 19.105-13.48 0.46484 5.3203-0.36719 14.84-10.766 20.289h-0.003906c-0.97656 0.51172-1.3555 1.7188-0.83984 2.6992 0.51172 0.97656 1.7188 1.3555 2.6992 0.84375 2.3672-1.2227 4.5312-2.8047 6.4102-4.6992-1.3477 7.0781-6.0352 18.879-22.215 22.5l-0.003907-0.003906c-0.99219 0.22266-1.6602 1.1602-1.5508 2.1719 0.11328 1.0117 0.96875 1.7812 1.9883 1.7812 0.14453 0 0.29297-0.015625 0.4375-0.046875 26.398-5.9062 25.887-31.754 25.879-32.016-0.007813-0.26562-0.070313-0.52344-0.17969-0.76562 3.8789-8.6328 1.3633-17.602 1.3242-17.734z"/>
  <path d="m120 120h-6c-0.003906-2.207-1.793-3.9961-4-4h-10c-2.207 0.003906-3.9961 1.793-4 4h-4c-0.003906-2.207-1.793-3.9961-4-4h-10c-2.207 0.003906-3.9961 1.793-4 4h-2.0273c0.058594-0.51172 0.019532-1.0273-0.12109-1.5234l-1.25-4.3945c-0.30469-1.0625-1.4102-1.6797-2.4727-1.3789-1.0625 0.30469-1.6797 1.4102-1.375 2.4727l1.2266 4.3086-3.4102 0.98828-1.2812-4.5117-0.003906-0.003907c-0.30078-1.0625-1.4102-1.6797-2.4727-1.375-1.0625 0.30078-1.6758 1.4062-1.375 2.4688l1.3125 4.6172c0.27734 0.99609 0.94141 1.8438 1.8477 2.3438 0.90234 0.50391 1.9727 0.625 2.9648 0.33594l1.6992-0.49219c0.23438 0.09375 0.48438 0.14453 0.73828 0.14453h6c0.003906 2.207 1.793 3.9961 4 4h10c2.207-0.003906 3.9961-1.793 4-4h4c0.003906 2.207 1.793 3.9961 4 4h10c2.207-0.003906 3.9961-1.793 4-4h6c0.53125 0.003906 1.043-0.20703 1.4219-0.58203 0.375-0.375 0.58984-0.88672 0.58984-1.418s-0.21484-1.043-0.58984-1.418c-0.37891-0.375-0.89062-0.58594-1.4219-0.58203zm-32 4h-10v-4l10-0.003906zm22 0h-10v-4l10-0.003906z"/>
  <path d="m61.285 105.96-1.2617-4.4414 3.4102-0.98828 1.3203 4.6484c0.30078 1.0625 1.4062 1.6797 2.4688 1.375 1.0625-0.30078 1.6797-1.4062 1.3789-2.4688l-1.3516-4.75c-0.45703-1.6523-1.9531-2.8008-3.6719-2.8125v-4.0195c2.2109-0.003906 4-1.793 4-4v-10c-0.003906-2.0312-1.5352-3.7344-3.5547-3.9531l0.15234-0.63281h-0.003906c2.4414 1.1211 4.7188 2.5742 6.7656 4.3164 0.23047 0.19141 0.60547 0.48438 1.0625 0.83594h0.003906c1.3906 0.99609 2.6836 2.125 3.8594 3.3633 0.20312 0.91797 1.0156 1.5703 1.9531 1.5703h0.058594c1.082-0.03125 1.9414-0.91797 1.9414-2 0-0.011719 0-0.019531-0.003906-0.11328h0.003906l-0.007812-0.082031c-0.03125-0.57422-0.16406-2.9648-0.75781-13.469l6.6797-11.473c0.44922-0.77734 0.32812-1.7617-0.30469-2.4023-0.62891-0.64453-1.6094-0.78906-2.3984-0.35156-4.6367 2.3164-9.7656 3.4805-14.949 3.4023l0.36719-1.5469c0.25781-1.0742-0.40625-2.1562-1.4805-2.4102-1.0781-0.25391-2.1562 0.41016-2.4102 1.4844l-0.48438 2.0273c-0.55859-0.10938-1.1211-0.23438-1.6836-0.38672-0.51172-0.14063-1.0586-0.070313-1.5195 0.19141-0.46094 0.26562-0.80078 0.69922-0.9375 1.2148-0.14063 0.51172-0.070313 1.0586 0.19531 1.5195 0.26562 0.46094 0.69922 0.79688 1.2148 0.93359 0.60547 0.16406 1.207 0.30078 1.8047 0.41797l-1.8359 7.7188c-0.92578-0.25-1.8672-0.44141-2.8164-0.58203-3.668-0.41406-7.3633-0.53906-11.051-0.36719-2.2812 0.046876-4.6406 0.09375-6.918-0.015624-9.4961-0.45703-14.93-3.0234-17.098-8.0703-1.3672-3.1875-1.5547-6.5039-1.75-10.016-0.24609-4.4062-0.5-8.9609-3.1797-13.352l-0.16406-0.27734-0.003906-0.007813c-1.1172-2.1523-2.9609-3.8438-5.2031-4.7695 0.011719-0.011719 0.019531-0.019531 0.03125-0.027344 0.55859-0.61328 0.90625-1.3867 0.99219-2.2148 0.023437-0.10156 0.042968-0.20312 0.058593-0.30859 0.41406-1.0039 1.1133-1.8672 2.0117-2.4766 1.9844-1.2812 4.9961-1.3203 8.2578-0.10156 4.1562 1.5508 7.668 4.7266 8.5391 7.7188h0.003906c0.14453 0.51172 0.48828 0.94531 0.95312 1.2031 0.46484 0.25781 1.0156 0.32031 1.5273 0.17188 0.51172-0.14844 0.94141-0.49219 1.1992-0.96094 0.25391-0.46875 0.3125-1.0195 0.16016-1.5273l-0.003906-0.007812c-1.4492-5.0273 6.0039-9.8398 10.457-12.715l0.99219-0.64453c3.3906-2.2188 9.082-5.9375 10.176-12.168h0.003906c1.5117 2.3438 1.9609 5.2188 1.2422 7.9102-0.27344 1.0703 0.375 2.1602 1.4453 2.4297 1.0703 0.27344 2.1562-0.375 2.4297-1.4453 2.0156-7.9375-3.1953-13.762-6.2344-15.73-0.6875-0.44922-1.582-0.42969-2.25 0.050781-0.66797 0.47656-0.97656 1.3125-0.77734 2.1094 1.457 5.8398-1.9141 9.3711-8.2188 13.496l-0.97266 0.63281c-3.793 2.4492-9.3867 6.0625-11.57 10.734l-0.003906-0.003906c-2.1641-2.2148-4.793-3.9219-7.6953-5-4.457-1.6641-8.7695-1.4883-11.828 0.48828-1.5625 1.0352-2.7812 2.5078-3.5117 4.2344-0.13672 0.34375-0.23828 0.70312-0.30078 1.0703-0.019531 0.085937-0.035156 0.17578-0.054687 0.26172-1.0234 0.6875-3.2969 2.2109-3.2969 2.2109-0.72266 0.48438-1.0508 1.3828-0.80859 2.2227 0.24609 0.83594 1.0039 1.418 1.875 1.4375 4.7461 0.11328 5.9141 2.0586 6.9453 3.7773l0.17969 0.30078c2.1562 3.5352 2.3711 7.4023 2.6016 11.492 0.20703 3.707 0.42187 7.5352 2.0703 11.371 3.7344 8.6953 13.535 10.148 20.582 10.488 2.4141 0.11328 4.8438 0.066406 7.1914 0.019531v0.003906c3.4766-0.16406 6.9609-0.054687 10.418 0.33203 0.82422 0.12109 1.6367 0.29297 2.4414 0.50781l-0.46094 1.9375h-0.34375c-2.207 0.003906-3.9961 1.793-4 4v10c0.003906 2.207 1.793 3.9961 4 4v4.9805l-0.76953 0.22266h0.003906c-2.0625 0.60547-3.25 2.7539-2.6641 4.8203l1.2891 4.5273c0.30078 1.0625 1.4062 1.6797 2.4688 1.3789 1.0625-0.30469 1.6797-1.4102 1.3789-2.4727zm5.8477-44.48c4.125 0.21484 8.2539-0.31641 12.191-1.5625l-4.0352 6.9297h0.003907c-0.19922 0.33594-0.29297 0.72656-0.26953 1.1172 0 0 0.26953 4.7695 0.49609 8.7734-0.33984-0.26953-0.69922-0.54688-1.082-0.83984-0.39453-0.30469-0.72266-0.55469-0.92188-0.71875h0.003906c-2.5234-2.1523-5.3594-3.9062-8.4062-5.2109zm-7.5547 17.023h4l0.003906 10h-4.0039z"/>
  <path d="m74.414 103.41 4-4c0.78125-0.78125 0.78125-2.0469 0-2.8281s-2.0469-0.78125-2.8281 0l-4 4c-0.375 0.375-0.58594 0.88281-0.58594 1.4141s0.21094 1.0391 0.58594 1.4141 0.88281 0.58594 1.4141 0.58594 1.0391-0.21094 1.4141-0.58594z"/>
  <path d="m73.105 110.79 4 2c0.47656 0.23828 1.0234 0.27734 1.5312 0.11328 0.50391-0.16797 0.91797-0.53125 1.1562-1.0039 0.23828-0.47656 0.27734-1.0273 0.10938-1.5312-0.16797-0.50391-0.53125-0.91797-1.0078-1.1562l-4-2c-0.47656-0.23828-1.0234-0.27734-1.5273-0.11328-0.50781 0.16797-0.92188 0.53125-1.1602 1.0039-0.23828 0.47656-0.27734 1.0273-0.10938 1.5312 0.16797 0.50391 0.53125 0.92188 1.0078 1.1562z"/>
  <path d="m84 105c0-1.1055-0.89453-2-2-2h-4c-0.53125-0.003906-1.043 0.20703-1.4219 0.58203-0.375 0.375-0.58984 0.88672-0.58984 1.418s0.21484 1.043 0.58984 1.418c0.37891 0.375 0.89062 0.58594 1.4219 0.58203h4c1.1055 0 2-0.89453 2-2z"/>
 </g>
</svg>
