<?xml version="1.0" encoding="UTF-8"?>
<svg width="128pt" height="128pt" version="1.1" viewBox="0 0 128 128" xmlns="http://www.w3.org/2000/svg">
 <g fill="#676767">
  <path d="m24.871 27.199c-0.375 0.375-0.58594 0.88672-0.58594 1.4141 0 0.53125 0.21094 1.043 0.58594 1.418l17.66 17.668c0.78125 0.78125 2.0469 0.78125 2.8281 0s0.78125-2.0469 0-2.8281l-17.668-17.672c-0.78125-0.77344-2.043-0.77344-2.8203 0z"/>
  <path d="m81.949 36.949v-24.668c0-1.1055-0.89453-2-2-2s-2 0.89453-2 2v24.668c0 1.1055 0.89453 2 2 2s2-0.89453 2-2z"/>
  <path d="m50.941 1.5195c-0.27734-1.0703-1.3711-1.7148-2.4414-1.4414-1.0703 0.27734-1.7148 1.3711-1.4414 2.4414l6 24c0.27734 1.0703 1.3711 1.7148 2.4414 1.4414 0.51562-0.13281 0.95703-0.46484 1.2266-0.92188 0.26953-0.45703 0.34766-1.0039 0.21484-1.5195z"/>
  <path d="m24.57 72.801c6.2812 9 6.2305 13.059 6.1914 17-0.30078 28.641 19.547 37.488 31.34 38.199 0.89844 0.050781 1.7695 0.078125 2.6406 0.078125h-0.003907c11.031 0.13281 21.586-4.4648 29-12.629l6.5508-7.2188 0.10938-0.12891 3.25-3.5898c2.3438-2.3477 3.2188-5.7852 2.2812-8.9688-0.9375-3.1797-3.5391-5.5938-6.7812-6.293 0.63281-2.2969 0.22656-4.7578-1.1094-6.7266-1.3359-1.9727-3.4727-3.2617-5.8398-3.5234 0.32422-0.89844 0.49609-1.8438 0.5-2.8008 0.011719-4.3008-3.0195-8.0078-7.2383-8.8477l10.848-10.891c1.7227-1.7148 2.6797-4.0469 2.6641-6.4766-0.019531-2.4258-1.0117-4.7461-2.7539-6.4336-1.7461-1.6914-4.0938-2.6094-6.5234-2.5469-2.4258 0.058594-4.7266 1.0938-6.3867 2.8672-11.887 12.688-26.668 27.129-32.5 29.5-3.3984 1.3984-4.2188 0.30859-6.8516-4h0.003907c-1.8281-3.3789-4.2539-6.3945-7.1602-8.9023-3.4609-2.8086-7.5312-2.8906-10.898-0.21875-3.8125 3.0117-4.3633 8.1914-1.332 12.551zm72.648 20.258c1.3398-0.003906 2.6289 0.53125 3.5703 1.4805 0.95313 0.96484 1.4805 2.2695 1.4688 3.625-0.015624 1.3555-0.56641 2.6484-1.5391 3.5977l-3.1719 3.4883h0.003906c-1.7383 0.82031-3.8047 0.47266-5.1797-0.87109l-0.17969-0.19141v0.003906c-1.6953-1.6641-1.8594-4.3359-0.38281-6.1914l5-5zm-3-8.9414v0.003906c1.5352 1.5234 1.6406 3.9688 0.24219 5.6172-0.085938 0.078125-0.16016 0.16016-0.23047 0.25l-5.7422 5.7422c-1.6523 0.60547-3.5039 0.21484-4.7773-1l-0.24219-0.24219c-1.6289-1.6875-1.7461-4.3281-0.27734-6.1602 0.80078-0.62109 4.1484-3.2695 5.9297-4.8008v0.003906c1.6289-0.98828 3.7188-0.74609 5.0781 0.58984zm-7-11.512v0.003906c0.95312 0.94531 1.4883 2.2305 1.4805 3.5703-0.12891 1.625-0.88281 3.1367-2.0977 4.2188-1.2188 1.0586-3.8516 3.1719-5.7891 4.6914h-0.003906c-1.6836 0.48047-3.4961 0.003906-4.7305-1.2383l-0.12891-0.12891v-0.003906c-1.8945-1.8945-1.8945-4.9727 0-6.8672l4.6992-4.6992v-0.003906c1.9922-1.5078 4.793-1.3164 6.5625 0.45312zm-58.828-9.2656c1.9219-1.5195 3.8516-1.4609 5.8906 0.19141 2.543 2.2188 4.6641 4.8828 6.2578 7.8594 0.92969 1.7344 2.0938 3.332 3.4609 4.75 0.039062 0.054687 0.078125 0.10938 0.12109 0.16016 0.17188 0.17969 4 4.3711 0.10156 10.461h-0.003906c-0.54297 0.92578-0.25781 2.1211 0.64844 2.6992 0.91016 0.57812 2.1133 0.33594 2.7227-0.55078 2.2344-3.2031 2.9102-7.2422 1.8398-11 0.99219-0.13672 1.9609-0.40234 2.8789-0.78906 7.8711-3.2305 26.32-22.379 33.898-30.469l0.003907-0.003906c0.92969-1.0039 2.2305-1.582 3.5977-1.5977 1.3711-0.023437 2.6914 0.51172 3.6602 1.4805 0.94922 0.94531 1.4844 2.2305 1.4844 3.5742 0 1.3398-0.53516 2.6289-1.4844 3.5742l-20.359 20.32c-1.6719 1.6641-2.6094 3.9219-2.6094 6.2812 0 2.3555 0.9375 4.6172 2.6094 6.2773l0.10938 0.10938v0.003906c1.3789 1.3789 3.1758 2.2617 5.1094 2.5078-0.70703 2.9336 0.15625 6.0273 2.2812 8.1719l0.078125 0.070313 0.078125 0.078125h0.003906c1.6211 1.6094 3.8164 2.5078 6.1016 2.5-0.27734 2.5898 0.63281 5.1641 2.4805 7l0.14844 0.17188c1.1562 1.1523 2.6172 1.957 4.2109 2.3164l-3 3.3086-0.078126 0.089844-0.003906 0.003906c-7.25 7.8086-17.66 11.895-28.289 11.109-5.1523-0.44531-10.113-2.1641-14.441-5h0.94922 0.85156c5-0.32031 9.5703-3.3516 13.648-9h0.003906c0.60938-0.89844 0.39453-2.1211-0.48828-2.7539-0.88281-0.63281-2.1094-0.44531-2.7617 0.42578-3.3281 4.6406-6.8984 7.1211-10.621 7.3711-5.1914 0.33984-9.1797-3.8086-9.2383-3.8711h-0.003907c-0.085937-0.09375-0.18359-0.17969-0.28906-0.25-3.1289-4.9414-5.2812-11.719-5.1797-21.09 0.058594-5.2891-0.42188-10.07-6.9102-19.352-1.5078-2.1211-1.918-5.1797 0.53125-7.1406z"/>
  <path d="m59.531 40.781-4.4219 0.64062 3.1992 3.1172-0.75781 4.4023 3.9492-2.082 3.9492 2.082-0.75781-4.4023 3.1992-3.1172-4.4219-0.64062-1.9688-4z"/>
  <path d="m65.961 16.73 1.3477 3.0391 1.6016-2.9297 3.3086-0.33984-2.2891-2.4219 0.69922-3.2578-3.0078 1.4297-2.8906-1.6719 0.42969 3.3125-2.4805 2.2305z"/>
  <path d="m39.352 15.391-2.4102-2.2891-0.36328 3.3086-2.9297 1.5898 3.043 1.3594 0.60938 3.2812 2.2305-2.4805 3.3086 0.44141-1.668-2.8906 1.4375-3z"/>
 </g>
</svg>
